<svg width="158" height="42" viewBox="0 0 158 42" fill="none" xmlns="http://www.w3.org/2000/svg">
<path d="M11.999 14.925C12.0885 14.9071 12.2048 14.8981 12.348 14.8981C12.8849 14.8981 13.3054 15.0592 13.6097 15.3813C13.9139 15.6856 14.066 16.1061 14.066 16.643C14.066 17.5735 13.5828 18.1373 12.6164 18.3341C11.8111 18.4952 10.3079 18.5757 8.10674 18.5757H7.24775C6.26348 18.5757 5.32396 18.5489 4.42918 18.4952C3.55229 18.4415 2.4696 18.3341 1.18111 18.173C0.393705 18.0657 0 17.5288 0 16.5624C0 16.0971 0.0894784 15.7124 0.268435 15.4082C0.447392 15.086 0.724775 14.9071 1.10058 14.8713H1.36902C1.58377 13.4217 1.67324 12.0259 1.63745 10.6837H1.44955C1.02005 10.6837 0.697931 10.5405 0.483183 10.2542C0.286331 9.94999 0.187905 9.5026 0.187905 8.91204C0.187905 8.41096 0.286331 7.99936 0.483183 7.67724C0.697931 7.35512 1.01111 7.19406 1.42271 7.19406H1.63745C1.65535 6.53192 1.6643 5.27027 1.6643 3.40912C1.05584 3.15859 0.751618 2.64856 0.751618 1.87904C0.751618 1.30638 0.903731 0.894783 1.20796 0.644244C1.51218 0.375809 1.98642 0.2058 2.63066 0.134217C3.50755 0.0447391 5.10027 0 7.40881 0C9.64576 0 11.3548 0.0715828 12.5359 0.214748C13.0728 0.268435 13.4844 0.429496 13.7707 0.697932C14.0749 0.948471 14.2271 1.34218 14.2271 1.87904C14.2271 2.41592 14.0928 2.85436 13.8244 3.19438C13.556 3.5165 13.1891 3.65966 12.7238 3.62387C11.0774 3.48071 9.62787 3.40912 8.37517 3.40912C7.80251 3.40912 7.06879 3.42702 6.17401 3.46281L5.47607 3.48965L5.5566 7.24774H6.17401C7.06879 7.24774 8.16043 7.26564 9.44891 7.30143L11.1669 7.35512C11.8648 7.35512 12.2138 7.91883 12.2138 9.04626C12.2138 9.58313 12.1064 10.0037 11.8917 10.3079C11.6948 10.6121 11.4085 10.7642 11.0327 10.7642C10.4958 10.7642 10.0395 10.7553 9.66366 10.7374L6.17401 10.7106H5.58345C5.54766 12.3212 5.44028 13.7707 5.26133 15.0592C5.94136 15.1308 6.79141 15.1666 7.81146 15.1666C9.2968 15.1666 10.6927 15.086 11.999 14.925Z" fill="#E2E7E9"/>
<path d="M38.6511 18.8441C37.3268 18.8441 36.1367 18.5668 35.0809 18.012C34.0429 17.4572 33.2287 16.6788 32.6381 15.6766C32.0655 14.6744 31.7791 13.5202 31.7791 12.2138C31.7791 10.8716 32.0834 9.65471 32.6918 8.56308C33.3003 7.45354 34.1414 6.5856 35.2151 5.95926C36.3067 5.31501 37.5326 4.99289 38.8927 4.99289C40.3422 4.99289 41.6307 5.34186 42.7581 6.03979C43.9035 6.73772 44.6909 7.64145 45.1204 8.75098C45.2635 9.091 45.3351 9.38628 45.3351 9.63682C45.3351 10.2274 44.9235 10.6211 44.1003 10.8179C43.8677 10.8716 43.6529 10.8985 43.4561 10.8985C43.0981 10.8985 42.8029 10.809 42.5702 10.63C42.3555 10.4332 42.1139 10.12 41.8454 9.6905C41.5054 9.17153 41.1207 8.75993 40.6912 8.4557C40.2617 8.13358 39.7338 7.97252 39.1074 7.97252C38.1053 7.97252 37.2821 8.38412 36.6378 9.20732C35.9936 10.0126 35.6714 11.0327 35.6714 12.2675C35.6714 13.3949 35.9578 14.2807 36.5304 14.925C37.121 15.5513 37.971 15.8645 39.0806 15.8645C40.1364 15.8645 40.9149 15.5961 41.416 15.0592C41.9349 14.5044 42.1944 13.8602 42.1944 13.1265C42.1944 12.8401 42.3376 12.5807 42.6239 12.348C42.9281 12.0975 43.3308 11.9722 43.8319 11.9722C44.4403 11.9722 44.8967 12.0885 45.2009 12.3212C45.523 12.5538 45.6841 12.9654 45.6841 13.556C45.6841 14.4507 45.4514 15.3008 44.9861 16.1061C44.5209 16.9114 43.7603 17.5735 42.7044 18.0925C41.6665 18.5936 40.3154 18.8441 38.6511 18.8441Z" fill="#E2E7E9"/>
<path d="M61.083 15.8377C61.423 15.8914 61.6825 16.0166 61.8615 16.2135C62.0583 16.4103 62.1568 16.7593 62.1568 17.2604C62.1568 17.6899 62.0404 18.0567 61.8078 18.361C61.593 18.6652 61.2978 18.8173 60.922 18.8173C60.1524 18.8173 59.5619 18.7278 59.1503 18.5489C58.7387 18.352 58.3629 18.003 58.0229 17.502C57.6292 18.0925 57.0923 18.5131 56.4122 18.7636C55.7322 18.9962 54.9359 19.1126 54.0232 19.1126C52.001 19.1126 50.4619 18.531 49.4061 17.3677C48.3502 16.2045 47.8223 14.585 47.8223 12.5091C47.8223 11.149 48.0997 9.94104 48.6545 8.8852C49.2092 7.82935 49.9788 7.00615 50.963 6.4156C51.9652 5.82504 53.1105 5.52976 54.399 5.52976C55.0432 5.52976 55.6427 5.65503 56.1975 5.90557C56.7523 6.15611 57.1728 6.48718 57.4591 6.89878L57.5128 6.54981C57.5486 6.29927 57.6918 6.09347 57.9423 5.93241C58.1929 5.75346 58.5866 5.66398 59.1234 5.66398C59.6961 5.66398 60.1166 5.7803 60.3851 6.01294C60.6535 6.24559 60.7877 6.54087 60.7877 6.89878C60.7877 7.02405 60.7788 7.12247 60.7609 7.19406C60.6535 7.80251 60.5461 8.82256 60.4388 10.2542C60.3851 10.9164 60.3582 11.7664 60.3582 12.8043V14.1465C60.3582 14.6655 60.403 15.0682 60.4925 15.3545C60.5819 15.6229 60.7788 15.784 61.083 15.8377ZM56.6002 13.9855C56.618 13.2517 56.627 12.1154 56.627 10.5763C56.627 9.96789 56.4212 9.47575 56.0096 9.09995C55.6159 8.70624 55.1059 8.50939 54.4795 8.50939C53.6742 8.50939 53.0121 8.8852 52.4931 9.63682C51.9741 10.3705 51.7146 11.319 51.7146 12.4822C51.7146 13.5918 51.9473 14.4776 52.4126 15.1397C52.8778 15.8019 53.5042 16.1329 54.2916 16.1329C55.0253 16.1329 55.589 15.954 55.9827 15.5961C56.3764 15.2203 56.5823 14.6834 56.6002 13.9855Z" fill="#E2E7E9"/>
<path d="M72.3374 5.10026C73.9122 5.10026 75.1291 5.65503 75.9881 6.76456C76.865 7.8562 77.3034 9.47575 77.3034 11.6232L77.2766 17.6899C77.2766 18.0657 77.0887 18.352 76.7129 18.5489C76.3549 18.7457 75.9075 18.8441 75.3707 18.8441C74.8517 18.8441 74.3864 18.7547 73.9748 18.5757C73.5811 18.3967 73.3843 18.1462 73.3843 17.8241L73.4111 11.5964C73.4111 10.29 73.2679 9.37733 72.9816 8.85835C72.6953 8.33938 72.2479 8.07989 71.6394 8.07989C71.1205 8.07989 70.7089 8.31254 70.4046 8.77782C70.1004 9.24311 69.8409 10.1468 69.6262 11.489C69.5009 12.2406 69.4383 13.0728 69.4383 13.9855L69.4651 17.4483C69.4651 17.9136 69.2861 18.2715 68.9282 18.522C68.5882 18.7547 68.1229 18.871 67.5324 18.871C66.9239 18.871 66.4407 18.7457 66.0828 18.4952C65.7428 18.2446 65.5728 17.8957 65.5728 17.4483C65.5728 13.726 65.5191 10.8269 65.4117 8.75098C65.3938 8.53623 65.3401 8.33938 65.2507 8.16042C65.1791 7.96357 65.0896 7.78461 64.9822 7.62355C64.8749 7.46249 64.7943 7.33722 64.7406 7.24774C64.6333 7.05089 64.5796 6.85404 64.5796 6.65719C64.5796 6.28138 64.7943 5.93241 65.2238 5.61029C65.6712 5.27027 66.1007 5.10026 66.5123 5.10026C66.7092 5.10026 66.8971 5.1629 67.076 5.28817C67.2729 5.41344 67.4876 5.61924 67.7203 5.90557C67.9171 6.15611 68.0603 6.37981 68.1498 6.57666C68.2393 6.77351 68.284 6.99721 68.284 7.24774V7.48934C68.6061 6.8093 69.0893 6.24559 69.7335 5.7982C70.3957 5.33291 71.2636 5.10026 72.3374 5.10026Z" fill="#E2E7E9"/>
<path d="M88.0735 13.4754C88.6641 13.4754 89.0936 13.5918 89.362 13.8244C89.6304 14.057 89.7647 14.4329 89.7647 14.9518C89.7647 16.1329 89.3889 17.0814 88.6372 17.7972C87.8856 18.5131 86.9371 18.871 85.7918 18.871C84.2349 18.871 83.0985 18.2446 82.3827 16.9919C81.6669 15.7213 81.309 13.717 81.309 10.979C81.309 10.1558 81.3179 9.55628 81.3358 9.18048C81.2105 9.16258 81.0047 9.15363 80.7184 9.15363C79.6983 9.13574 79.1883 8.64361 79.1883 7.67724C79.1883 7.17616 79.3136 6.80035 79.5641 6.54981C79.8326 6.29927 80.2979 6.18295 80.96 6.20085L81.5506 6.22769C81.6758 5.11816 81.8816 3.75809 82.1679 2.14748C82.2395 1.71798 82.4364 1.39586 82.7585 1.18111C83.0985 0.948471 83.528 0.832149 84.047 0.832149C84.6554 0.832149 85.1297 0.975314 85.4697 1.26164C85.8097 1.54798 85.9797 1.89694 85.9797 2.30854L85.9529 2.52329L85.8187 3.38228C85.6039 4.84972 85.4608 5.85188 85.3892 6.38875C85.9976 6.42454 86.4629 6.44244 86.785 6.44244C87.6977 6.46034 88.1541 6.93457 88.1541 7.86515C88.1541 8.33043 88.0288 8.6794 87.7782 8.91204C87.5277 9.14469 87.1071 9.26101 86.5166 9.26101H85.1744C85.1565 9.61892 85.1476 10.1916 85.1476 10.979C85.1476 12.3033 85.1744 13.3233 85.2281 14.0391C85.2997 14.7371 85.3981 15.2113 85.5234 15.4619C85.6487 15.7124 85.8097 15.8377 86.0066 15.8377C86.2571 15.8377 86.4182 15.7571 86.4898 15.5961C86.5613 15.435 86.5971 15.1487 86.5971 14.7371C86.5971 13.896 87.0893 13.4754 88.0735 13.4754Z" fill="#E2E7E9"/>
<path d="M98.7931 18.8978C96.5203 18.8978 94.7129 18.3073 93.3707 17.1262C92.0464 15.9271 91.3843 14.2539 91.3843 12.1064C91.3843 10.7106 91.6796 9.46681 92.2701 8.37517C92.8607 7.28354 93.6928 6.43349 94.7666 5.82504C95.8582 5.21659 97.1377 4.91236 98.6052 4.91236C100.091 4.91236 101.397 5.22553 102.524 5.85188C103.652 6.47823 104.52 7.35512 105.128 8.48255C105.755 9.59208 106.068 10.8627 106.068 12.2943C106.068 14.3881 105.414 16.0166 104.108 17.1798C102.802 18.3252 101.03 18.8978 98.7931 18.8978ZM98.7394 15.9182C99.831 15.9182 100.672 15.614 101.263 15.0055C101.871 14.3792 102.175 13.4575 102.175 12.2406C102.175 11.0416 101.88 10.0216 101.29 9.18048C100.717 8.32148 99.8668 7.89199 98.7394 7.89199C97.6836 7.89199 96.8425 8.27675 96.2161 9.04626C95.5898 9.81577 95.2766 10.8448 95.2766 12.1333C95.2766 13.386 95.5808 14.3344 96.1893 14.9787C96.7977 15.605 97.6478 15.9182 98.7394 15.9182Z" fill="#E2E7E9"/>
<path d="M113.622 19.0589C112.387 19.0589 111.287 18.7726 110.32 18.1999C109.354 17.6093 108.665 16.8309 108.253 15.8645C108.146 15.5961 108.092 15.3724 108.092 15.1934C108.092 14.8176 108.289 14.4597 108.683 14.1197C109.077 13.7797 109.506 13.6097 109.971 13.6097C110.24 13.6097 110.454 13.6723 110.616 13.7976C110.777 13.9049 110.902 14.0123 110.991 14.1197C111.081 14.2092 111.135 14.2718 111.152 14.3076C111.671 14.916 112.101 15.3455 112.441 15.5961C112.781 15.8466 113.193 15.9719 113.676 15.9719C114.123 15.9719 114.508 15.8824 114.83 15.7034C115.152 15.5066 115.313 15.2382 115.313 14.8981C115.313 14.5223 115.125 14.2271 114.749 14.0123C114.374 13.7976 113.765 13.556 112.924 13.2875C111.994 12.9654 111.233 12.6612 110.642 12.3749C110.07 12.0885 109.56 11.668 109.112 11.1132C108.683 10.5405 108.468 9.81577 108.468 8.93888C108.468 8.062 108.719 7.31038 109.22 6.68403C109.721 6.03979 110.383 5.54766 111.206 5.20764C112.047 4.86762 112.951 4.69761 113.917 4.69761C114.955 4.69761 115.85 4.89446 116.602 5.28817C117.371 5.66398 117.953 6.174 118.346 6.81825C118.74 7.4446 118.937 8.11568 118.937 8.83151C118.937 9.31469 118.803 9.68155 118.534 9.93209C118.266 10.1826 117.819 10.3079 117.192 10.3079C116.637 10.3079 116.253 10.2184 116.038 10.0395C115.841 9.86051 115.716 9.60997 115.662 9.28785C115.608 8.84046 115.465 8.48254 115.233 8.21411C115.018 7.94567 114.579 7.81146 113.917 7.81146C113.416 7.81146 113.023 7.90094 112.736 8.07989C112.468 8.25885 112.334 8.50939 112.334 8.83151C112.334 9.22522 112.521 9.52944 112.897 9.74419C113.291 9.95894 113.917 10.1916 114.776 10.4421C115.689 10.7285 116.441 11.0148 117.031 11.3011C117.622 11.5695 118.132 11.9811 118.561 12.5359C118.991 13.0728 119.205 13.7886 119.205 14.6834C119.205 15.7034 118.919 16.5445 118.346 17.2067C117.774 17.8688 117.058 18.3431 116.199 18.6294C115.34 18.9157 114.481 19.0589 113.622 19.0589Z" fill="#E2E7E9"/>
<path d="M42.6212 41.0258C42.0486 41.0258 41.5743 40.8826 41.1985 40.5963C40.8227 40.31 40.6437 39.9252 40.6616 39.442L40.8764 29.5368C40.8943 29.0536 41.0822 28.6778 41.4401 28.4094C41.798 28.123 42.2633 27.9799 42.836 27.9799C43.4265 27.9799 43.9097 28.123 44.2855 28.4094C44.6613 28.6957 44.8403 29.0894 44.8224 29.5905L44.6076 39.4689C44.5897 39.9521 44.3929 40.3368 44.0171 40.6232C43.6592 40.8916 43.1939 41.0258 42.6212 41.0258Z" fill="#E2E7E9"/>
<path d="M56.9527 35.845C57.5433 35.845 57.9728 35.9613 58.2412 36.194C58.5096 36.4266 58.6439 36.8024 58.6439 37.3214C58.6439 38.5025 58.268 39.451 57.5164 40.1668C56.7648 40.8826 55.8163 41.2406 54.671 41.2406C53.1141 41.2406 51.9777 40.6142 51.2619 39.3615C50.5461 38.0909 50.1881 36.0866 50.1881 33.3486C50.1881 32.5254 50.1971 31.9259 50.215 31.5501C50.0897 31.5322 49.8839 31.5232 49.5976 31.5232C48.5775 31.5053 48.0675 31.0132 48.0675 30.0468C48.0675 29.5457 48.1928 29.1699 48.4433 28.9194C48.7118 28.6689 49.177 28.5525 49.8392 28.5704L50.4297 28.5973C50.555 27.4877 50.7608 26.1277 51.0471 24.5171C51.1187 24.0876 51.3156 23.7654 51.6377 23.5507C51.9777 23.3181 52.4072 23.2017 52.9262 23.2017C53.5346 23.2017 54.0089 23.3449 54.3489 23.6312C54.6889 23.9176 54.8589 24.2665 54.8589 24.6781L54.8321 24.8929L54.6979 25.7519C54.4831 27.2193 54.3399 28.2215 54.2684 28.7583C54.8768 28.7941 55.3421 28.812 55.6642 28.812C56.5769 28.8299 57.0332 29.3041 57.0332 30.2347C57.0332 30.7 56.908 31.049 56.6574 31.2816C56.4069 31.5143 55.9863 31.6306 55.3958 31.6306H54.0536C54.0357 31.9885 54.0268 32.5612 54.0268 33.3486C54.0268 34.6729 54.0536 35.6929 54.1073 36.4087C54.1789 37.1067 54.2773 37.5809 54.4026 37.8314C54.5279 38.082 54.6889 38.2072 54.8858 38.2072C55.1363 38.2072 55.2974 38.1267 55.3689 37.9657C55.4405 37.8046 55.4763 37.5183 55.4763 37.1067C55.4763 36.2656 55.9685 35.845 56.9527 35.845Z" fill="#E2E7E9"/>
<path d="M67.9944 41.4553C66.3659 41.4553 64.9879 41.1511 63.8605 40.5426C62.751 39.9342 61.9188 39.0931 61.3641 38.0193C60.8093 36.9456 60.5319 35.7287 60.5319 34.3686C60.5319 33.0086 60.8451 31.8006 61.4714 30.7448C62.1157 29.671 62.9836 28.8389 64.0753 28.2483C65.1848 27.6577 66.4196 27.3625 67.7797 27.3625C68.9966 27.3625 70.1061 27.6041 71.1083 28.0872C72.1283 28.5704 72.9247 29.2684 73.4973 30.181C74.0879 31.0758 74.3832 32.1317 74.3832 33.3486C74.3832 34.1181 74.24 34.6728 73.9537 35.0129C73.6852 35.335 73.2199 35.4961 72.5578 35.4961H63.8874C63.8874 35.9255 64.0395 36.364 64.3437 36.8114C64.6479 37.2409 65.1043 37.6077 65.7127 37.912C66.3212 38.2162 67.0459 38.3683 67.887 38.3683C68.6386 38.3683 69.2292 38.2609 69.6587 38.0462C70.0882 37.8135 70.5356 37.4735 71.0009 37.0261C71.3409 36.7219 71.6899 36.5698 72.0478 36.5698C72.4594 36.5698 72.8441 36.7309 73.202 37.053C73.56 37.3572 73.7389 37.7062 73.7389 38.0999C73.7389 38.422 73.6315 38.7352 73.4168 39.0394C73.041 39.6299 72.4057 40.1847 71.5109 40.7037C70.6161 41.2048 69.444 41.4553 67.9944 41.4553ZM70.8398 33.0801C71.0009 33.0801 71.0993 33.0533 71.1351 32.9996C71.1888 32.9459 71.2156 32.8475 71.2156 32.7043C71.2156 32.0064 70.8756 31.4248 70.1956 30.9595C69.5334 30.4942 68.7102 30.2616 67.726 30.2616C66.9386 30.2616 66.2496 30.4137 65.659 30.7179C65.0864 31.0221 64.6479 31.3979 64.3437 31.8453C64.0395 32.2748 63.8874 32.6864 63.8874 33.0801H70.8398Z" fill="#E2E7E9"/>
<path d="M84.4952 27.2551C85.211 27.2551 85.8732 27.4251 86.4816 27.7651C87.0901 28.0872 87.5732 28.5525 87.9312 29.161C88.2891 29.7694 88.468 30.4763 88.468 31.2816C88.468 32.4448 88.0833 33.3486 87.3138 33.9928C86.5621 34.6192 85.5868 34.9323 84.3878 34.9323C83.7615 34.9323 83.323 34.8429 83.0725 34.6639C82.8219 34.467 82.6967 34.1449 82.6967 33.6975C82.6967 33.268 82.7862 32.9728 82.9651 32.8117C83.1441 32.6327 83.3946 32.5254 83.7167 32.4896C84.7726 32.3822 85.3005 31.9438 85.3005 31.1742C85.3005 30.8521 85.22 30.6105 85.0589 30.4495C84.9157 30.2705 84.7099 30.181 84.4415 30.181C83.9583 30.181 83.5109 30.4584 83.0993 31.0132C82.6877 31.5501 82.3477 32.1854 82.0793 32.9191C81.8108 33.6349 81.6408 34.2434 81.5693 34.7444C81.444 35.5318 81.3813 36.9277 81.3813 38.932C81.3813 39.8984 81.2382 40.5605 80.9519 40.9184C80.6834 41.2585 80.2002 41.4285 79.5023 41.4285C78.8581 41.4285 78.3659 41.3032 78.0259 41.0527C77.7038 40.8021 77.5338 40.4174 77.5159 39.8984V35.5497C77.5159 34.4044 77.489 33.4381 77.4353 32.6506C77.3817 31.8453 77.2922 30.8163 77.1669 29.5636L77.0595 28.4631C77.0238 28.0157 77.1669 27.6488 77.489 27.3625C77.8291 27.0761 78.2943 26.933 78.8849 26.933C79.8871 26.933 80.4239 27.3804 80.4955 28.2752C80.5313 28.7046 80.5671 29.3131 80.6029 30.1005C80.9608 29.2594 81.4619 28.5794 82.1061 28.0604C82.7683 27.5235 83.5646 27.2551 84.4952 27.2551Z" fill="#E2E7E9"/>
<path d="M103.782 38.2072C104.122 38.2609 104.381 38.3862 104.56 38.5831C104.757 38.7799 104.856 39.1289 104.856 39.6299C104.856 40.0594 104.739 40.4263 104.507 40.7305C104.292 41.0348 103.997 41.1869 103.621 41.1869C102.851 41.1869 102.261 41.0974 101.849 40.9184C101.437 40.7216 101.062 40.3726 100.722 39.8715C100.328 40.4621 99.7911 40.8826 99.1111 41.1332C98.431 41.3658 97.6347 41.4822 96.722 41.4822C94.6998 41.4822 93.1608 40.9005 92.1049 39.7373C91.0491 38.5741 90.5211 36.9545 90.5211 34.8787C90.5211 33.5186 90.7985 32.3106 91.3533 31.2548C91.9081 30.1989 92.6776 29.3757 93.6618 28.7852C94.664 28.1946 95.8093 27.8993 97.0978 27.8993C97.742 27.8993 98.3415 28.0246 98.8963 28.2752C99.4511 28.5257 99.8716 28.8568 100.158 29.2684L100.212 28.9194C100.247 28.6689 100.391 28.4631 100.641 28.302C100.892 28.123 101.285 28.0336 101.822 28.0336C102.395 28.0336 102.815 28.1499 103.084 28.3825C103.352 28.6152 103.487 28.9104 103.487 29.2684C103.487 29.3936 103.478 29.4921 103.46 29.5636C103.352 30.1721 103.245 31.1921 103.138 32.6238C103.084 33.2859 103.057 34.136 103.057 35.1739V36.5161C103.057 37.0351 103.102 37.4377 103.191 37.7241C103.281 37.9925 103.478 38.1536 103.782 38.2072ZM99.299 36.355C99.3169 35.6213 99.3258 34.4849 99.3258 32.9459C99.3258 32.3375 99.12 31.8453 98.7084 31.4695C98.3147 31.0758 97.8047 30.879 97.1783 30.879C96.373 30.879 95.7109 31.2548 95.1919 32.0064C94.6729 32.7401 94.4134 33.6886 94.4134 34.8518C94.4134 35.9613 94.6461 36.8472 95.1114 37.5093C95.5767 38.1715 96.203 38.5025 96.9904 38.5025C97.7241 38.5025 98.2879 38.3236 98.6816 37.9657C99.0753 37.5898 99.2811 37.053 99.299 36.355ZM95.9972 26.4229C95.6214 26.4229 95.3082 26.2977 95.0577 26.0471C94.8071 25.7787 94.6819 25.4566 94.6819 25.0808C94.6819 24.866 94.7266 24.6423 94.8161 24.4097C94.9056 24.177 95.0308 23.9891 95.1919 23.846L97.6884 21.5643C98.0284 21.2422 98.2968 21.0185 98.4937 20.8932C98.7084 20.7679 98.941 20.7053 99.1916 20.7053C99.5853 20.7053 99.9164 20.8395 100.185 21.1079C100.453 21.3764 100.587 21.7164 100.587 22.128C100.587 22.3964 100.525 22.647 100.4 22.8796C100.292 23.1122 100.149 23.3091 99.97 23.4702L97.2857 25.7787C97.0352 26.0113 96.8115 26.1814 96.6146 26.2887C96.4178 26.3782 96.212 26.4229 95.9972 26.4229Z" fill="#E2E7E9"/>
<path d="M114.982 27.2551C115.698 27.2551 116.36 27.4251 116.969 27.7651C117.577 28.0872 118.061 28.5525 118.418 29.161C118.776 29.7694 118.955 30.4763 118.955 31.2816C118.955 32.4448 118.571 33.3486 117.801 33.9928C117.049 34.6192 116.074 34.9323 114.875 34.9323C114.249 34.9323 113.81 34.8429 113.56 34.6639C113.309 34.467 113.184 34.1449 113.184 33.6975C113.184 33.268 113.273 32.9728 113.452 32.8117C113.631 32.6327 113.882 32.5254 114.204 32.4896C115.26 32.3822 115.788 31.9438 115.788 31.1742C115.788 30.8521 115.707 30.6105 115.546 30.4495C115.403 30.2705 115.197 30.181 114.929 30.181C114.446 30.181 113.998 30.4584 113.587 31.0132C113.175 31.5501 112.835 32.1854 112.567 32.9191C112.298 33.6349 112.128 34.2434 112.057 34.7444C111.931 35.5318 111.869 36.9277 111.869 38.932C111.869 39.8984 111.725 40.5605 111.439 40.9184C111.171 41.2585 110.688 41.4285 109.99 41.4285C109.345 41.4285 108.853 41.3032 108.513 41.0527C108.191 40.8021 108.021 40.4174 108.003 39.8984V35.5497C108.003 34.4044 107.976 33.4381 107.923 32.6506C107.869 31.8453 107.779 30.8163 107.654 29.5636L107.547 28.4631C107.511 28.0157 107.654 27.6488 107.976 27.3625C108.316 27.0761 108.782 26.933 109.372 26.933C110.374 26.933 110.911 27.3804 110.983 28.2752C111.019 28.7046 111.054 29.3131 111.09 30.1005C111.448 29.2594 111.949 28.5794 112.593 28.0604C113.256 27.5235 114.052 27.2551 114.982 27.2551Z" fill="#E2E7E9"/>
<path d="M124.095 41.0258C123.523 41.0258 123.049 40.8826 122.673 40.5963C122.297 40.31 122.118 39.9252 122.136 39.442L122.351 29.5368C122.369 29.0536 122.556 28.6778 122.914 28.4094C123.272 28.123 123.738 27.9799 124.31 27.9799C124.901 27.9799 125.384 28.123 125.76 28.4094C126.136 28.6957 126.315 29.0894 126.297 29.5905L126.082 39.4689C126.064 39.9521 125.867 40.3368 125.491 40.6232C125.133 40.8916 124.668 41.0258 124.095 41.0258Z" fill="#E2E7E9"/>
<path d="M137.219 41.2674C134.946 41.2674 133.139 40.6768 131.797 39.4957C130.472 38.2967 129.81 36.6235 129.81 34.476C129.81 33.0801 130.105 31.8364 130.696 30.7448C131.287 29.6531 132.119 28.8031 133.192 28.1946C134.284 27.5862 135.564 27.2819 137.031 27.2819C138.516 27.2819 139.823 27.5951 140.95 28.2215C142.078 28.8478 142.946 29.7247 143.554 30.8521C144.18 31.9617 144.494 33.2323 144.494 34.6639C144.494 36.7577 143.84 38.3862 142.534 39.5494C141.228 40.6947 139.456 41.2674 137.219 41.2674ZM137.165 38.2878C138.257 38.2878 139.098 37.9835 139.689 37.3751C140.297 36.7487 140.601 35.8271 140.601 34.6102C140.601 33.4112 140.306 32.3912 139.715 31.5501C139.143 30.6911 138.293 30.2616 137.165 30.2616C136.109 30.2616 135.268 30.6463 134.642 31.4158C134.016 32.1854 133.702 33.2144 133.702 34.5028C133.702 35.7555 134.007 36.704 134.615 37.3483C135.224 37.9746 136.074 38.2878 137.165 38.2878Z" fill="#E2E7E9"/>
<path d="M152.048 41.4285C150.813 41.4285 149.713 41.1421 148.746 40.5695C147.78 39.9789 147.091 39.2005 146.679 38.2341C146.572 37.9657 146.518 37.742 146.518 37.563C146.518 37.1872 146.715 36.8293 147.109 36.4893C147.502 36.1492 147.932 35.9792 148.397 35.9792C148.666 35.9792 148.88 36.0419 149.041 36.1671C149.202 36.2745 149.328 36.3819 149.417 36.4893C149.507 36.5787 149.56 36.6414 149.578 36.6772C150.097 37.2856 150.527 37.7151 150.867 37.9657C151.207 38.2162 151.618 38.3415 152.102 38.3415C152.549 38.3415 152.934 38.252 153.256 38.073C153.578 37.8762 153.739 37.6077 153.739 37.2677C153.739 36.8919 153.551 36.5966 153.175 36.3819C152.8 36.1671 152.191 35.9255 151.35 35.6571C150.419 35.335 149.659 35.0308 149.068 34.7444C148.496 34.4581 147.986 34.0376 147.538 33.4828C147.109 32.9101 146.894 32.1854 146.894 31.3085C146.894 30.4316 147.145 29.68 147.646 29.0536C148.147 28.4094 148.809 27.9172 149.632 27.5772C150.473 27.2372 151.377 27.0672 152.343 27.0672C153.381 27.0672 154.276 27.264 155.028 27.6577C155.797 28.0336 156.379 28.5436 156.772 29.1878C157.166 29.8142 157.363 30.4853 157.363 31.2011C157.363 31.6843 157.229 32.0511 156.96 32.3017C156.692 32.5522 156.244 32.6775 155.618 32.6775C155.063 32.6775 154.679 32.588 154.464 32.409C154.267 32.2301 154.142 31.9796 154.088 31.6574C154.034 31.21 153.891 30.8521 153.659 30.5837C153.444 30.3153 153.005 30.181 152.343 30.181C151.842 30.181 151.448 30.2705 151.162 30.4495C150.894 30.6284 150.759 30.879 150.759 31.2011C150.759 31.5948 150.947 31.899 151.323 32.1138C151.717 32.3285 152.343 32.5612 153.202 32.8117C154.115 33.098 154.866 33.3844 155.457 33.6707C156.048 33.9391 156.558 34.3507 156.987 34.9055C157.417 35.4424 157.631 36.1582 157.631 37.053C157.631 38.073 157.345 38.9141 156.772 39.5763C156.2 40.2384 155.484 40.7126 154.625 40.999C153.766 41.2853 152.907 41.4285 152.048 41.4285Z" fill="#E2E7E9"/>
<path d="M24.3913 5.10026C25.9661 5.10026 27.183 5.65503 28.042 6.76456C28.9189 7.8562 29.3574 9.47575 29.3574 11.6232C29.3574 11.6232 29.1284 17.7124 29.067 18.8173C29.0056 19.9221 28.3652 30.0021 28.3652 30.0021C28.2579 31.9594 28.2579 33.1786 28.2579 34.8787C28.2579 35.7555 28.2936 36.3998 28.3652 36.8114C28.4547 37.223 28.6158 37.5093 28.8484 37.6704C29.0989 37.8314 29.4837 37.912 30.0027 37.912C31.1122 37.912 33.027 37.6614 35.7472 37.1603C35.8367 37.1425 35.9619 37.1335 36.123 37.1335C36.5883 37.1335 36.9551 37.3125 37.2236 37.6704C37.5099 38.0104 37.6531 38.413 37.6531 38.8783C37.6531 39.8268 36.9641 40.4263 35.5861 40.6768C34.3513 40.9095 33.4118 41.0705 32.7676 41.16C32.1412 41.2316 31.3449 41.2674 30.3785 41.2674C28.6247 41.2674 27.3362 41.0795 26.513 40.7037C25.7077 40.3279 25.1708 39.7015 24.9024 38.8246C24.634 37.9478 24.4998 36.5966 24.4998 34.7713C24.4998 32.7133 24.5892 30.8253 24.7682 29.1073C24.965 27.3893 25.2007 21.8394 25.4562 18.2312C25.7116 14.623 25.465 11.5964 25.465 11.5964C25.465 10.29 25.3219 9.37733 25.0355 8.85835C24.7492 8.33938 24.3018 8.07989 23.6934 8.07989C23.1744 8.07989 22.7628 8.31254 22.4586 8.77782C22.1543 9.24311 21.8949 10.1468 21.6801 11.489C21.5548 12.2406 21.4922 13.0728 21.4922 13.9855L21.5191 17.4483C21.5191 17.9136 21.3401 18.2715 20.9822 18.522C20.6422 18.7547 20.1769 18.871 19.5863 18.871C18.9779 18.871 18.4947 18.7457 18.1368 18.4952C17.7968 18.2446 17.6267 17.8957 17.6267 17.4483C17.6267 13.726 17.5731 10.8269 17.4657 8.75098C17.4478 8.53623 17.3941 8.33938 17.3046 8.16042C17.233 7.96357 17.1436 7.78461 17.0362 7.62355C16.9288 7.46249 16.8483 7.33722 16.7946 7.24774C16.6872 7.05089 16.6335 6.85404 16.6335 6.65719C16.6335 6.28138 16.8483 5.93241 17.2778 5.61029C17.7252 5.27027 18.1547 5.10026 18.5663 5.10026C18.7631 5.10026 18.951 5.1629 19.13 5.28817C19.3268 5.41344 19.5416 5.61924 19.7742 5.90557C19.9711 6.15611 20.1142 6.37981 20.2037 6.57666C20.2932 6.77351 20.3379 6.99721 20.3379 7.24774V7.48934C20.6601 6.8093 21.1432 6.24559 21.7875 5.7982C22.4496 5.33291 23.3176 5.10026 24.3913 5.10026Z" fill="#E2E7E9"/>
<path d="M40.1313 24.1193C40.15 24.2428 40.1971 24.3604 40.269 24.4626C40.3649 24.5977 40.5004 24.6996 40.6568 24.7544L41.4306 25.0072C41.5896 25.0582 41.7335 25.1461 41.8525 25.265C41.9704 25.3829 42.0594 25.5268 42.1134 25.6867L42.3603 26.4492C42.4125 26.6087 42.5136 26.7477 42.6493 26.8466C42.785 26.9454 42.9483 26.9991 43.1162 27C43.2841 27.0009 43.448 26.9489 43.5847 26.8515C43.7214 26.7541 43.8239 26.6161 43.8778 26.4572L44.1298 25.6847C44.184 25.5292 44.2735 25.3883 44.3913 25.273C44.509 25.1577 44.6518 25.0712 44.8085 25.0202L45.5703 24.7734C45.7299 24.7214 45.8692 24.6205 45.9683 24.485C46.0673 24.3495 46.1212 24.1863 46.1223 24.0185C46.1235 23.8507 46.0717 23.6868 45.9744 23.55C45.8771 23.4132 45.7392 23.3105 45.5803 23.2564L44.8075 23.0046C44.6498 22.9513 44.5065 22.8622 44.3889 22.7443C44.2714 22.6264 44.1827 22.4829 44.1298 22.3251L43.8798 21.5616C43.8297 21.4008 43.7301 21.26 43.5951 21.1591C43.4602 21.0583 43.2969 21.0027 43.1284 21.0001C42.9599 20.9976 42.795 21.0483 42.6571 21.145C42.5191 21.2417 42.4153 21.3794 42.3603 21.5386L42.1084 22.3101C42.0564 22.468 41.9684 22.6119 41.8485 22.7298C41.73 22.8471 41.5865 22.9359 41.4286 22.9896L40.6668 23.2374C40.5486 23.278 40.4414 23.3454 40.3537 23.4345C40.2661 23.5236 40.2003 23.6318 40.1617 23.7507C40.1231 23.8695 40.1127 23.9957 40.1313 24.1193Z" fill="#E2E7E9"/>
<path d="M121.64 24.1192C121.659 24.2428 121.706 24.3603 121.778 24.4626C121.874 24.5977 122.009 24.6996 122.166 24.7544L122.94 25.0072C123.099 25.0581 123.242 25.1461 123.361 25.265C123.479 25.3829 123.568 25.5268 123.622 25.6867L123.869 26.4492C123.922 26.6087 124.023 26.7477 124.158 26.8466C124.294 26.9454 124.457 26.9991 124.625 27C124.793 27.0009 124.957 26.9489 125.094 26.8515C125.23 26.7541 125.333 26.6161 125.387 26.4572L125.639 25.6847C125.693 25.5292 125.783 25.3882 125.9 25.273C126.018 25.1577 126.161 25.0712 126.318 25.0202L127.079 24.7733C127.239 24.7214 127.378 24.6205 127.477 24.485C127.576 24.3495 127.63 24.1863 127.631 24.0185C127.632 23.8507 127.581 23.6867 127.483 23.55C127.386 23.4132 127.248 23.3105 127.089 23.2564L126.317 23.0046C126.159 22.9512 126.016 22.8622 125.898 22.7443C125.78 22.6264 125.692 22.4829 125.639 22.3251L125.389 21.5616C125.339 21.4008 125.239 21.26 125.104 21.1591C124.969 21.0583 124.806 21.0026 124.637 21.0001C124.469 20.9975 124.304 21.0482 124.166 21.1449C124.028 21.2416 123.924 21.3794 123.869 21.5386L123.617 22.3101C123.565 22.468 123.477 22.6119 123.357 22.7298C123.239 22.8471 123.095 22.9359 122.938 22.9896L122.176 23.2374C122.058 23.2779 121.95 23.3454 121.863 23.4345C121.775 23.5236 121.709 23.6318 121.671 23.7506C121.632 23.8695 121.622 23.9957 121.64 24.1192Z" fill="#E2E7E9"/>
</svg>
